<svg transform="scale(-1, -1)" xmlns="http://www.w3.org/2000/svg" viewBox="0 0 1440 320">
  <path fill="#177ddc" fill-opacity="1" d="M0,128L40,117.3C80,107,160,85,240,106.7C320,128,400,192,480,229.3C560,267,640,277,720,261.3C800,245,880,203,960,197.3C1040,192,1120,224,1200,202.7C1280,181,1360,107,1400,69.3L1440,32L1440,320L1400,320C1360,320,1280,320,1200,320C1120,320,1040,320,960,320C880,320,800,320,720,320C640,320,560,320,480,320C400,320,320,320,240,320C160,320,80,320,40,320L0,320Z"></path>
</svg>